#Comment line ignore any data following # character 
#Hierarchical Translation and Rotation (.htr) file 
[Header]	
#Header keywords are followed by a single value 
FileType HTR		#Single word string
DataType HTRS		#Translation followed by rotation and scale data
FileVersion 1		#integer
NumSegments 25		#integer
NumFrames 5		#integer
DataFrameRate 30		#integer, data frame rate in this file
EulerRotationOrder ZYX
CalibrationUnits mm
RotationUnits Degrees
GlobalAxisofGravity Y
BoneLengthAxis Y
ScaleFactor 1.00
[SegmentNames&Hierarchy]
#CHILD	PARENT
BN_Tick_Root GLOBAL
BN_Torso BN_Tick_Root
BN_L_Leg_Front01 BN_Torso
BN_L_Leg_Rear01 BN_Torso
BN_MetalTop BN_Torso
BN_Neck BN_Torso
BN_R_Leg_Front01 BN_Torso
BN_R_Leg_Rear01 BN_Torso
BN_Sack BN_Torso
BN_L_Leg_Front02 BN_L_Leg_Front01
BN_L_Leg_Front03 BN_L_Leg_Front02
BN_L_Leg_Rear02 BN_L_Leg_Rear01
BN_L_Leg_Rear03 BN_L_Leg_Rear02
BN_Head BN_Neck
BN_Needle BN_Head
BN_R_Leg_Front02 BN_R_Leg_Front01
BN_R_Leg_Front03 BN_R_Leg_Front02
BN_R_Leg_Rear02 BN_R_Leg_Rear01
BN_R_Leg_Rear03 BN_R_Leg_Rear02
BN_SackDef01 BN_Sack
BN_SackDef02 BN_Sack
BN_SackDef03 BN_Sack
BN_SackDef04 BN_Sack
BN_SackDef05 BN_Sack
BN_SackDef06 BN_Sack
[BasePosition]
#SegmentName Tx, Ty, Tz, Rx, Ry, Rz, BoneLength
BN_Tick_Root 0.000000 0.000000 0.000000 -90.000000 0.000000 0.000000 10.000000 
BN_Torso 0.000000 0.000000 0.000000 0.000000 0.000000 0.000000 10.000000 
BN_L_Leg_Front01 0.000000 0.000000 0.000000 0.000000 0.000000 0.000000 10.000000 
BN_L_Leg_Rear01 0.000000 0.000000 0.000000 0.000000 0.000000 0.000000 10.000000 
BN_MetalTop 0.000000 0.000000 0.000000 0.000000 0.000000 0.000000 10.000000 
BN_Neck 0.000000 0.000000 0.000000 0.000000 0.000000 0.000000 10.000000 
BN_R_Leg_Front01 0.000000 0.000000 0.000000 0.000000 0.000000 0.000000 10.000000 
BN_R_Leg_Rear01 0.000000 0.000000 0.000000 0.000000 0.000000 0.000000 10.000000 
BN_Sack 0.000000 0.000000 0.000000 0.000000 0.000000 0.000000 10.000000 
BN_L_Leg_Front02 0.000000 0.000000 0.000000 0.000000 0.000000 0.000000 10.000000 
BN_L_Leg_Front03 0.000000 0.000000 0.000000 0.000000 0.000000 0.000000 10.000000 
BN_L_Leg_Rear02 0.000000 0.000000 0.000000 0.000000 0.000000 0.000000 10.000000 
BN_L_Leg_Rear03 0.000000 0.000000 0.000000 0.000000 0.000000 0.000000 10.000000 
BN_Head 0.000000 0.000000 0.000000 0.000000 0.000000 0.000000 10.000000 
BN_Needle 0.000000 0.000000 0.000000 0.000000 0.000000 0.000000 10.000000 
BN_R_Leg_Front02 0.000000 0.000000 0.000000 0.000000 0.000000 0.000000 10.000000 
BN_R_Leg_Front03 0.000000 0.000000 0.000000 0.000000 0.000000 0.000000 10.000000 
BN_R_Leg_Rear02 0.000000 0.000000 0.000000 0.000000 0.000000 0.000000 10.000000 
BN_R_Leg_Rear03 0.000000 0.000000 0.000000 0.000000 0.000000 0.000000 10.000000 
BN_SackDef01 0.000000 0.000000 0.000000 0.000000 0.000000 0.000000 10.000000 
BN_SackDef02 0.000000 0.000000 0.000000 0.000000 0.000000 0.000000 10.000000 
BN_SackDef03 0.000000 0.000000 0.000000 0.000000 0.000000 0.000000 10.000000 
BN_SackDef04 0.000000 0.000000 0.000000 0.000000 0.000000 0.000000 10.000000 
BN_SackDef05 0.000000 0.000000 0.000000 0.000000 0.000000 0.000000 10.000000 
BN_SackDef06 0.000000 0.000000 0.000000 0.000000 0.000000 0.000000 10.000000 
#Beginning of Data. Separated by tabs
#Fr	Tx	Ty	Tz	Rx	Ry	Rz	SF
[BN_Tick_Root]
173 5.119532 29.215755 1.203844 0.000000 0.000000 -4.338531 29.685337
174 -0.000018 6.765485 -1.924654 0.000000 0.000000 -4.341011 7.033923
175 -0.000025 6.765497 -1.924653 0.000000 0.000000 -4.343492 7.033935
176 -0.000031 6.765509 -1.924653 0.000000 0.000000 -4.345970 7.033946
177 -0.000038 6.765521 -1.924653 0.000000 0.000000 -4.348453 7.033958
[BN_Torso]
173 -3.231558 -25.077656 141.417618 -21.479073 -4.829883 33.029305 143.660278
174 2.412507 -31.780415 138.157242 -20.426376 -3.819513 27.304743 141.785889
175 4.656580 -61.256432 131.768311 -19.277382 -2.919089 21.555107 145.385422
176 6.900585 -90.731544 125.379562 -18.225212 -1.908562 15.828859 154.918900
177 9.144625 -120.207115 118.990723 -17.125845 -0.955108 10.090154 169.387619
[BN_L_Leg_Front01]
173 -68.477791 10.734189 -26.804373 -55.541359 11.075150 105.159294 74.316254
174 -68.477791 10.734189 -26.804373 -57.575600 10.865788 107.440681 74.316254
175 -68.477791 10.734189 -26.804373 -59.557644 10.839473 110.099106 74.316254
176 -68.477791 10.734189 -26.804373 -61.449566 11.034525 113.127174 74.316254
177 -68.477791 10.734189 -26.804373 -63.208881 11.477753 116.509026 74.316254
[BN_L_Leg_Rear01]
173 -72.133743 -73.994843 -18.268616 40.144466 30.964010 170.897202 104.939293
174 -72.133743 -73.994843 -18.268616 40.607307 33.618557 173.929260 104.939293
175 -72.133743 -73.994843 -18.268616 41.320374 36.079445 176.838516 104.939293
176 -72.133743 -73.994843 -18.268616 42.285717 38.300350 179.602936 104.939293
177 -72.133743 -73.994843 -18.268616 43.489220 40.256130 -177.822128 104.939293
[BN_MetalTop]
173 0.000008 13.737477 26.403606 89.998573 -12.929121 -90.001572 29.763546
174 0.000008 13.737477 26.403606 89.998573 -12.929121 -90.001572 29.763546
175 0.000008 13.737477 26.403606 89.998573 -12.929121 -90.001572 29.763546
176 0.000008 13.737477 26.403606 89.998573 -12.929121 -90.001572 29.763546
177 0.000008 13.737477 26.403606 89.998573 -12.929121 -90.001572 29.763546
[BN_Neck]
173 0.000014 95.233284 10.002091 -89.997131 -41.545044 89.995880 95.757088
174 0.000014 95.233284 10.002091 -89.997429 -43.516880 89.996178 95.757088
175 0.000014 95.233284 10.002091 -89.997742 -45.494022 89.996498 95.757088
176 0.000014 95.233284 10.002091 -89.998131 -47.475285 89.996895 95.757088
177 0.000014 95.233284 10.002091 -89.998520 -49.459553 89.997292 95.757088
[BN_R_Leg_Front01]
173 68.477768 10.734107 -26.804314 80.836525 35.966103 27.992846 74.316193
174 68.477768 10.734107 -26.804314 77.502289 29.291235 34.386593 74.316193
175 68.477768 10.734107 -26.804314 74.234291 23.565954 40.751083 74.316193
176 68.477768 10.734107 -26.804314 71.026100 18.823900 47.108128 74.316193
177 68.477768 10.734107 -26.804314 67.875092 15.044586 53.455265 74.316193
[BN_R_Leg_Rear01]
173 72.133751 -73.994873 -18.268644 -65.947472 60.129448 -77.813538 104.939331
174 72.133751 -73.994873 -18.268644 -57.786583 58.837414 -61.848381 104.939331
175 72.133751 -73.994873 -18.268644 -51.089951 56.228817 -46.181831 104.939331
176 72.133751 -73.994873 -18.268644 -46.577904 52.394753 -31.336372 104.939331
177 72.133751 -73.994873 -18.268644 -44.553200 47.522530 -17.476931 104.939331
[BN_Sack]
173 -0.000000 -78.024918 33.657791 90.002831 -10.780183 -90.001335 84.974907
174 -0.000000 -78.024918 33.657791 90.000595 -9.580710 -90.003662 84.974907
175 -0.000000 -78.024918 33.657791 89.999954 -6.114825 -89.998413 84.974907
176 -0.000000 -78.024918 33.657791 90.004562 -1.106361 -90.002968 84.974907
177 -0.000000 -78.024918 33.657791 90.001518 4.805774 -90.002823 84.974907
[BN_L_Leg_Front02]
173 142.805023 -0.000015 -0.000104 0.184766 0.299700 -92.919609 142.805023
174 142.805023 -0.000015 -0.000104 0.191104 0.239156 -87.268372 142.805023
175 142.805023 -0.000015 -0.000104 0.203325 0.175701 -80.959229 142.805023
176 142.805023 -0.000015 -0.000104 0.201009 0.097511 -73.878471 142.805023
177 142.805023 -0.000015 -0.000104 0.196873 0.017363 -65.776550 142.805023
[BN_L_Leg_Front03]
173 124.143021 -0.000045 0.000007 0.354937 -0.440286 100.582832 124.143021
174 124.143021 -0.000045 0.000007 0.355047 -0.449006 93.749176 124.143021
175 124.143021 -0.000045 0.000007 0.355212 -0.448573 85.683533 124.143021
176 124.143021 -0.000045 0.000007 0.351307 -0.436424 76.144936 124.143021
177 124.143021 -0.000045 0.000007 0.354940 -0.404084 64.651840 124.143021
[BN_L_Leg_Rear02]
173 139.939041 0.000075 -0.000022 0.143009 -0.210581 78.530518 139.939041
174 139.939041 0.000075 -0.000022 0.114410 -0.221647 86.607155 139.939041
175 139.939041 0.000075 -0.000022 0.084387 -0.228609 94.724388 139.939041
176 139.939041 0.000075 -0.000022 0.053838 -0.231261 102.800926 139.939041
177 139.939041 0.000075 -0.000022 0.028821 -0.240143 111.093109 139.939041
[BN_L_Leg_Rear03]
173 142.839615 0.000179 -0.000060 0.000062 -0.002346 -93.005447 142.839615
174 142.839615 0.000179 -0.000060 0.000280 -0.002330 -103.695251 142.839615
175 142.839615 0.000179 -0.000060 0.000475 -0.002299 -113.355545 142.839615
176 142.839615 0.000179 -0.000060 0.000650 -0.002256 -122.127937 142.839615
177 142.839615 0.000179 -0.000060 0.000804 -0.002205 -130.085342 142.839615
[BN_Head]
173 57.062447 -0.000030 0.000000 0.001969 0.001285 23.751451 57.062447
174 57.062447 -0.000030 0.000000 0.001950 0.001321 21.779871 57.062447
175 57.062447 -0.000030 0.000000 0.001929 0.001356 19.802950 57.062447
176 57.062447 -0.000030 0.000000 0.001907 0.001390 17.821945 57.062447
177 57.062447 -0.000030 0.000000 0.001884 0.001424 15.837932 57.062447
[BN_Needle]
173 33.915260 69.677612 0.000034 0.000003 0.000030 87.896805 77.493317
174 33.915260 69.677612 0.000034 0.000003 0.000030 87.896805 77.493317
175 33.915260 69.677612 0.000035 0.000003 0.000030 87.896805 77.493317
176 33.915260 69.677612 0.000035 0.000003 0.000030 87.896805 77.493317
177 33.915260 69.677612 0.000036 0.000003 0.000030 87.896805 77.493317
[BN_R_Leg_Front02]
173 142.804947 -0.000060 0.000060 -0.113823 0.525151 114.220612 142.804947
174 142.804947 -0.000060 0.000060 -0.149994 0.425253 104.932495 142.804947
175 142.804947 -0.000060 0.000060 -0.180152 0.322546 94.795944 142.804947
176 142.804947 -0.000060 0.000060 -0.194348 0.203019 83.755547 142.804947
177 142.804947 -0.000060 0.000060 -0.201041 0.073257 71.334404 142.804947
[BN_R_Leg_Front03]
173 124.143005 -0.000060 -0.000156 -0.355646 -0.376944 -122.811340 124.143005
174 124.143005 -0.000060 -0.000156 -0.353245 -0.409341 -113.828453 124.143005
175 124.143005 -0.000060 -0.000156 -0.352382 -0.435921 -102.767212 124.143005
176 124.143005 -0.000060 -0.000156 -0.352411 -0.450185 -89.313568 124.143005
177 124.143005 -0.000060 -0.000156 -0.352136 -0.428410 -72.593849 124.143005
[BN_R_Leg_Rear02]
173 139.939011 -0.000149 0.000015 -0.139988 -0.187963 -75.643181 139.939011
174 139.939011 -0.000149 0.000015 -0.108999 -0.207161 -85.844742 139.939011
175 139.939011 -0.000149 0.000015 -0.080349 -0.223265 -95.475197 139.939011
176 139.939011 -0.000149 0.000015 -0.047618 -0.234099 -104.578835 139.939011
177 139.939011 -0.000149 0.000015 -0.022319 -0.242398 -112.874733 139.939011
[BN_R_Leg_Rear03]
173 142.839417 0.000075 0.000119 0.002347 0.000020 89.011261 142.839417
174 142.839417 0.000075 0.000119 0.002333 -0.000258 102.637207 142.839417
175 142.839417 0.000075 0.000119 0.002295 -0.000493 114.225571 142.839417
176 142.839417 0.000075 0.000119 0.002245 -0.000685 123.924782 142.839417
177 142.839417 0.000075 0.000119 0.002194 -0.000835 131.663803 142.839417
[BN_SackDef01]
173 249.782272 -3.760844 42.949425 -128.408218 -44.374973 -11.740845 253.475800
174 249.782272 -3.760844 42.949425 -128.408218 -44.374973 -11.740845 253.475800
175 249.782272 -3.760844 42.949425 -128.408218 -44.374973 -11.740845 253.475800
176 249.782272 -3.760844 42.949425 -128.408218 -44.374973 -11.740845 253.475800
177 249.782272 -3.760844 42.949425 -128.408218 -44.374973 -11.740845 253.475800
[BN_SackDef02]
173 138.789795 -62.131748 45.674385 32.077126 -27.375721 -88.781525 158.773758
174 138.789795 -62.131748 45.674385 32.077126 -27.375721 -88.781525 158.773758
175 138.789795 -62.131748 45.674385 32.077126 -27.375721 -88.781525 158.773758
176 138.789795 -62.131748 45.674385 32.077126 -27.375721 -88.781525 158.773758
177 138.789795 -62.131748 45.674385 32.077126 -27.375721 -88.781525 158.773758
[BN_SackDef03]
173 249.782272 -3.760785 -42.949661 18.144459 44.375008 -11.740894 253.475845
174 249.782272 -3.760785 -42.949661 18.144459 44.375008 -11.740894 253.475845
175 249.782272 -3.760785 -42.949661 18.144459 44.375008 -11.740894 253.475845
176 249.782272 -3.760785 -42.949661 18.144459 44.375008 -11.740894 253.475845
177 249.782272 -3.760785 -42.949661 18.144459 44.375008 -11.740894 253.475845
[BN_SackDef04]
173 138.789780 -62.131645 -45.674473 146.059982 27.375723 -88.781555 158.773743
174 138.789780 -62.131645 -45.674473 146.059982 27.375723 -88.781555 158.773743
175 138.789780 -62.131645 -45.674473 146.059982 27.375723 -88.781555 158.773743
176 138.789780 -62.131645 -45.674473 146.059982 27.375723 -88.781555 158.773743
177 138.789780 -62.131645 -45.674473 146.059982 27.375723 -88.781555 158.773743
[BN_SackDef05]
173 118.790161 46.167137 -63.831196 0.155741 51.314110 90.605110 142.537460
174 118.790161 46.167137 -63.831196 0.155741 51.314110 90.605110 142.537460
175 118.790161 46.167137 -63.831196 0.155741 51.314110 90.605110 142.537460
176 118.790161 46.167137 -63.831196 0.155741 51.314110 90.605110 142.537460
177 118.790161 46.167137 -63.831196 0.155741 51.314110 90.605110 142.537460
[BN_SackDef06]
173 118.790207 46.167194 63.831219 152.058487 -51.314072 90.605019 142.537537
174 118.790207 46.167194 63.831219 152.058487 -51.314072 90.605019 142.537537
175 118.790207 46.167194 63.831219 152.058487 -51.314072 90.605019 142.537537
176 118.790207 46.167194 63.831219 152.058487 -51.314072 90.605019 142.537537
177 118.790207 46.167194 63.831219 152.058487 -51.314072 90.605019 142.537537
